<?xml version="1.0" encoding="UTF-8"?>
<svg width="48px" height="43px" viewBox="0 0 48 43" version="1.1" xmlns="http://www.w3.org/2000/svg" xmlns:xlink="http://www.w3.org/1999/xlink">
    <!-- Generator: Sketch 46.2 (44496) - http://www.bohemiancoding.com/sketch -->
    <title>Coriolis-Symbol-Small</title>
    <desc>Created with Sketch.</desc>
    <defs></defs>
    <g id="Coriolis" stroke="none" stroke-width="1" fill="none" fill-rule="evenodd">
        <g id="01-Login-B-800x600" transform="translate(-272.000000, -51.000000)">
            <g id="Group-6" transform="translate(272.000000, 48.000000)">
                <g id="Coriolis-48-Small-COLOR">
                    <g id="Coriolis-Symbol-Stroke" transform="translate(1.000000, 4.000000)">
                        <path d="M32.327222,40.8988076 C32.2458771,40.8988076 32.1655006,40.8978486 32.0851241,40.8968895 C26.2641222,40.7866005 19.0931825,36.7596119 13.371925,30.3877824 C4.55278284,20.5653444 1.6805334,8.1352899 6.96891985,2.68029798 C8.66360513,0.932935946 11.0584375,0.0371971186 13.9151927,0.0909030868 C19.7361945,0.201192129 26.9061659,4.22818071 32.6274234,10.6000102 C41.4475339,20.4224482 44.3197834,32.8515437 39.0304285,38.3074947 C37.3851312,40.0059459 35.0706753,40.8988076 32.327222,40.8988076" id="Fill-3" stroke="#0044CA" stroke-width="0.7"></path>
                        <path d="M33.1288833,37.4486056 C27.8046664,37.4486056 21.1198592,34.6300013 15.2852999,29.8530472 C5.66917147,21.9822458 1.30269381,11.2458473 5.5510277,5.91936611 C6.85738795,4.28229312 8.88810511,3.27722428 11.4243227,3.00965348 C16.9489967,2.42847818 24.3387929,5.31133783 30.7156515,10.5313661 C40.3308116,18.4021676 44.6972892,29.1395251 40.4489553,34.4660063 C39.1435635,36.1021203 37.1128463,37.1081481 34.5756604,37.3747599 C34.1069588,37.4236707 33.6237314,37.4486056 33.1288833,37.4486056" id="Fill-6" stroke="#2F81B7" stroke-width="0.7"></path>
                        <path d="M33.352737,34.3136399 C28.6831528,34.3136399 22.8485935,32.6765669 17.2067441,29.4733895 C10.0726033,25.4233841 4.83650998,19.8063153 3.54370721,14.8154964 C3.00237631,12.7276768 3.20477015,10.8287873 4.1315209,9.32502014 C7.32721314,4.13472193 18.391087,4.71685626 28.7925811,10.6235537 C35.9267219,14.6735592 41.1628152,20.290628 42.4565864,25.2814469 C42.9979173,27.3692664 42.794555,29.268156 41.8678043,30.7719231 C40.405533,33.1474532 37.2940908,34.3136399 33.352737,34.3136399" id="Fill-8" stroke="#159588" stroke-width="0.7"></path>
                        <path d="M32.3978422,31.8918122 C28.4487413,31.8918122 23.8237031,31.0929359 19.1366878,29.4424364 C11.2597906,26.6698658 4.90907858,22.0540296 2.95873792,17.6856245 C2.21404479,16.0159444 2.13076311,14.4728568 2.71179807,13.0985594 C4.84710152,8.04923939 15.6814666,7.14295117 26.8634843,11.0788314 C34.7403814,13.8523611 41.0910935,18.4672382 43.0414341,22.8366023 C43.7861272,24.5053235 43.8694089,26.048411 43.2874056,27.4236674 C42.0478643,30.3563969 37.8721598,31.8918122 32.3978422,31.8918122" id="Fill-10" stroke="#8CC152" stroke-width="0.7"></path>
                        <path d="M29.4657242,29.8110604 C26.841383,29.8110604 24.0078692,29.580892 21.0697691,29.0975383 C12.2699947,27.6503543 4.8734198,24.2208446 2.2258372,20.3616871 C1.34266407,19.075621 1.02987359,17.8039404 1.29714967,16.5821296 C2.3865902,11.5865156 12.7687164,9.24071558 24.9307464,11.2412629 C33.7305207,12.689406 41.1270957,16.1179566 43.7746783,19.9771141 C44.656883,21.2641392 44.9696735,22.5358198 44.7033658,23.7566716 C43.8773278,27.5458194 37.7047998,29.8110604 29.4657242,29.8110604" id="Fill-12" stroke="#CDDA49" stroke-width="0.7"></path>
                        <path d="M22.9995181,28.8063174 C10.102592,28.8063174 0,25.0008659 0,20.1423939 C0,15.2829628 10.102592,11.4775113 22.9995181,11.4775113 C35.897408,11.4775113 46,15.2829628 46,20.1423939 C46,25.0008659 35.897408,28.8063174 22.9995181,28.8063174" id="Fill-25" stroke="#FFDC00" stroke-width="0.7"></path>
                        <path d="M16.5350773,29.8110604 C8.29511663,29.8110604 2.1236195,27.5458194 1.29662145,23.7566716 C1.03031646,22.5358198 1.34310377,21.2641392 2.22626797,19.9771141 C4.87285539,16.1179566 12.2693555,12.689406 21.0700092,11.2412629 C33.2328844,9.24071558 43.6139372,11.5865156 44.7033667,16.5821296 C44.9696717,17.8029814 44.6568844,19.074662 43.7746886,20.3616871 C41.1271328,24.2208446 33.7306327,27.6503543 24.9309474,29.0975383 C21.992877,29.580892 19.1593919,29.8110604 16.5350773,29.8110604" id="Fill-23" stroke="#FDC02F" stroke-width="0.7"></path>
                        <path d="M13.6022438,31.8918122 C8.1279262,31.8918122 3.95222167,30.3563969 2.71171205,27.4227084 C2.1306771,26.048411 2.21395877,24.5053235 2.95865191,22.8366023 C4.90899256,18.4681972 11.2587362,13.8523611 19.1366018,11.0788314 C30.317651,7.14295117 41.1520161,8.04923939 43.2882879,13.0985594 C43.8693229,14.4728568 43.7860412,16.0159444 43.0413481,17.6856245 C41.0910074,22.0540296 34.7402954,26.6698658 26.8633982,29.4424364 C22.1773513,31.0919769 17.5513447,31.8918122 13.6022438,31.8918122" id="Fill-21" stroke="#FD9727" stroke-width="0.7"></path>
                        <path d="M12.6464413,34.3133131 C8.70508758,34.3133131 5.59461381,33.1471263 4.13137412,30.7715963 C3.20559176,29.2678292 3.00222953,27.3689396 3.54356042,25.2811201 C4.83733158,20.2903012 10.0724565,14.6741913 17.2065973,10.6232269 C27.6080914,4.71748845 38.6719653,4.13439508 41.8686259,9.32469329 C42.7944082,10.8284604 42.9977705,12.72735 42.4564396,14.8161285 C41.1626684,19.8059884 35.9275435,25.4230573 28.7934027,29.4730627 C23.1515533,32.6762401 17.3160256,34.3133131 12.6464413,34.3133131" id="Fill-19" stroke="#FC5830" stroke-width="0.7"></path>
                        <path d="M12.8711167,37.4479918 C12.3762686,37.4479918 11.8930412,37.424016 11.4243396,37.3741461 C8.88715369,37.1075344 6.85643653,36.1015065 5.55104467,34.4644335 L5.55104467,34.4653925 C1.30271078,29.1389113 5.66918844,18.4015538 15.2843485,10.5307524 C21.6612071,5.31072407 29.0500349,2.43074153 34.5756773,3.00903972 C37.1118949,3.27661052 39.142612,4.28167936 40.4489723,5.91875235 C44.6973062,11.2452336 40.3308285,21.981632 30.7147001,29.8524335 C24.8801408,34.6284285 18.1953336,37.4479918 12.8711167,37.4479918" id="Fill-17" stroke="#FF2D55" stroke-width="0.7"></path>
                        <path d="M13.672797,40.8987313 C10.9293437,40.8987313 8.61488776,40.0058695 6.96959045,38.3074183 C1.6802356,32.8524264 4.55248505,20.4223718 13.3716272,10.5999339 C19.0938531,4.22810435 26.2638244,0.201115765 32.0848263,0.0908267234 C34.9328659,0.0380797903 37.3364138,0.932859582 39.0310991,2.68022162 C44.3194856,8.13617257 41.4472361,20.5652681 32.628094,30.387706 C26.9058681,36.7595356 19.7358967,40.7865241 13.9148949,40.8968132 C13.8345184,40.8977722 13.7531735,40.8987313 13.672797,40.8987313" id="Fill-14" stroke="#F91661" stroke-width="0.7"></path>
                    </g>
                </g>
            </g>
        </g>
    </g>
</svg>