<?xml version="1.0" encoding="UTF-8"?>
<svg width="232px" height="41px" viewBox="0 0 232 41" version="1.1" xmlns="http://www.w3.org/2000/svg" xmlns:xlink="http://www.w3.org/1999/xlink">
    <!-- Generator: Sketch 46.2 (44496) - http://www.bohemiancoding.com/sketch -->
    <title>Fill 25</title>
    <desc>Created with Sketch.</desc>
    <defs></defs>
    <g id="Symbols" stroke="none" stroke-width="1" fill="none" fill-rule="evenodd">
        <g id="Coriolis-Splash" transform="translate(-16.000000, -247.000000)" fill="#FFFFFF">
            <path d="M127.70157,247.735496 L128.526271,247.735496 C129.099368,247.735496 129.562389,248.196268 129.562389,248.764843 L129.562389,286.236896 C129.562389,286.803732 129.099368,287.264504 128.526271,287.264504 L127.70157,287.264504 C127.13022,287.264504 126.667199,286.803732 126.667199,286.236896 L126.667199,248.764843 C126.667199,248.196268 127.13022,247.735496 127.70157,247.735496 L127.70157,247.735496 Z M219.166512,278.968872 C219.685445,278.781086 220.255048,279.034945 220.471706,279.542663 C221.740208,282.512468 224.261487,285.344911 229.770561,285.344911 C234.538801,285.344911 238.173077,282.408142 238.173077,277.551781 C238.173077,266.088126 218.86948,269.306573 218.86948,256.544063 C218.86948,251.348643 222.844469,247 229.59933,247 C235.394952,247 238.510296,250.39754 239.853929,252.950042 C240.140478,253.499491 239.874896,254.172392 239.291315,254.387998 L238.746174,254.589695 C238.265681,254.767048 237.736265,254.563613 237.481166,254.121968 C236.308763,252.098049 233.902802,249.599449 229.59933,249.599449 C224.432718,249.599449 221.76467,252.760517 221.76467,256.601442 C221.76467,266.821883 241.125926,264.563232 241.125926,277.381383 C241.125926,283.256658 236.754311,287.998261 229.712901,287.998261 C222.987744,287.998261 219.564885,284.286005 217.995856,280.53028 C217.770461,279.989525 218.051768,279.372265 218.603898,279.172307 L219.166512,278.968872 Z M208.662057,247.735496 L209.486758,247.735496 C210.058108,247.735496 210.522876,248.196268 210.522876,248.764843 L210.522876,286.236896 C210.522876,286.803732 210.058108,287.264504 209.486758,287.264504 L208.662057,287.264504 C208.090707,287.264504 207.627686,286.803732 207.627686,286.236896 L207.627686,248.764843 C207.627686,248.196268 208.090707,247.735496 208.662057,247.735496 L208.662057,247.735496 Z M183.337443,247.735496 L184.163891,247.735496 C184.735241,247.735496 185.198262,248.196268 185.198262,248.764843 L185.198262,284.611154 L200.002695,284.611154 C200.575793,284.611154 201.038813,285.071925 201.038813,285.6405 L201.038813,286.236896 C201.038813,286.803732 200.575793,287.264504 200.002695,287.264504 L183.337443,287.264504 C182.766093,287.264504 182.303072,286.803732 182.303072,286.236896 L182.303072,248.764843 C182.303072,248.196268 182.766093,247.735496 183.337443,247.735496 L183.337443,247.735496 Z M155.542221,247 C166.784015,247 175.640815,255.923325 175.640815,267.5 C175.640815,279.134054 166.728103,288 155.486309,288 C144.302174,288 135.445373,279.302714 135.445373,267.5 C135.445373,255.810305 144.358086,247 155.542221,247 L155.542221,247 Z M155.542221,285.287532 C165.138107,285.287532 172.632054,277.77782 172.632054,267.5 C172.632054,257.335199 165.138107,249.712468 155.542221,249.712468 C145.890422,249.712468 138.454134,257.335199 138.454134,267.5 C138.454134,277.77782 145.890422,285.287532 155.542221,285.287532 L155.542221,285.287532 Z M96.686169,248.764843 C96.686169,248.196268 97.1491898,247.735496 97.7205399,247.735496 L105.827771,247.735496 C113.54886,247.735496 117.693333,252.704877 117.693333,258.465394 C117.693333,263.321756 114.740483,267.160941 110.312957,268.630195 L119.594339,285.746565 C119.966502,286.433376 119.466789,287.264504 118.684022,287.264504 L117.805157,287.264504 C117.422509,287.264504 117.069565,287.054114 116.891346,286.716794 L107.58725,269.195293 L99.5813591,269.195293 L99.5813591,286.235157 C99.5813591,286.803732 99.1183383,287.264504 98.5469882,287.264504 L97.7205399,287.264504 C97.1491898,287.264504 96.686169,286.803732 96.686169,286.235157 L96.686169,248.764843 Z M105.941342,266.595844 C111.277438,266.595844 114.626912,263.490416 114.626912,258.465394 C114.626912,253.777693 111.448668,250.390585 105.770112,250.390585 L99.5813591,250.390585 L99.5813591,266.595844 L105.941342,266.595844 Z M70.7010956,247 C81.9428897,247 90.7996902,255.923325 90.7996902,267.5 C90.7996902,279.134054 81.8869778,288 70.6451837,288 C59.4593015,288 50.6025009,279.302714 50.6025009,267.5 C50.6025009,255.810305 59.5169606,247 70.7010956,247 L70.7010956,247 Z M70.7010956,285.287532 C80.296982,285.287532 87.7909291,277.77782 87.7909291,267.5 C87.7909291,257.335199 80.296982,249.712468 70.7010956,249.712468 C61.0510445,249.712468 53.6130094,257.335199 53.6130094,267.5 C53.6130094,277.77782 61.0510445,285.287532 70.7010956,285.287532 L70.7010956,285.287532 Z M48.8552529,282.442918 C49.0090107,282.842833 48.9006813,283.298388 48.5739459,283.578329 C46.8651373,285.045844 42.3502483,288 35.9291116,288 C24.6296583,288 16,279.189695 16,267.5 C16,255.812044 24.8568005,247.001739 35.7578813,247.001739 C41.4574045,247.001739 45.5774155,249.263868 47.7003219,250.867006 C48.0654967,251.143469 48.1947931,251.630322 48.0288045,252.056319 L47.7911788,252.656192 C47.5448168,253.283885 46.7725332,253.508185 46.22215,253.113486 C44.2792102,251.722477 40.5995057,249.710729 35.7578813,249.710729 C26.5044554,249.710729 19.0087612,257.279559 19.0087612,267.5 C19.0087612,277.72218 26.1060829,285.287532 35.9291116,285.287532 C41.3910091,285.287532 45.1685594,282.93151 47.0555873,281.455301 C47.602476,281.029304 48.4062101,281.262299 48.6525721,281.909118 L48.8552529,282.442918 Z M242.839671,253.373032 C242.314565,253.066164 241.89767,252.651739 241.588971,252.129745 C241.280273,251.607752 241.125926,251.036731 241.125926,250.416667 C241.125926,249.796602 241.280273,249.225581 241.588971,248.703588 C241.89767,248.181595 242.314565,247.76717 242.839671,247.460301 C243.364776,247.153432 243.939201,247 244.562963,247 C245.186725,247 245.76115,247.153432 246.286255,247.460301 C246.811361,247.76717 247.228256,248.181595 247.536955,248.703588 C247.845653,249.225581 248,249.796602 248,250.416667 C248,251.036731 247.845653,251.607752 247.536955,252.129745 C247.228256,252.651739 246.811361,253.066164 246.286255,253.373032 C245.76115,253.679901 245.186725,253.833333 244.562963,253.833333 C243.939201,253.833333 243.364776,253.679901 242.839671,253.373032 Z M245.96642,252.860532 C246.392869,252.604281 246.731796,252.259454 246.98321,251.826042 C247.234624,251.392629 247.360329,250.922842 247.360329,250.416667 C247.360329,249.910491 247.234624,249.440704 246.98321,249.007292 C246.731796,248.573879 246.392869,248.229052 245.96642,247.972801 C245.53997,247.71655 245.072156,247.588426 244.562963,247.588426 C244.05377,247.588426 243.584364,247.71655 243.154733,247.972801 C242.725101,248.229052 242.384583,248.573879 242.133169,249.007292 C241.881755,249.440704 241.756049,249.910491 241.756049,250.416667 C241.756049,250.922842 241.881755,251.392629 242.133169,251.826042 C242.384583,252.259454 242.725101,252.604281 243.154733,252.860532 C243.584364,253.116784 244.05377,253.244907 244.562963,253.244907 C245.072156,253.244907 245.53997,253.116784 245.96642,252.860532 Z M243.302716,252.087037 C243.264527,252.049074 243.245432,251.998457 243.245432,251.935185 L243.245432,248.879167 C243.245432,248.815895 243.264527,248.765278 243.302716,248.727315 C243.340906,248.689352 243.391824,248.67037 243.455473,248.67037 L244.706173,248.67037 C245.107162,248.67037 245.430177,248.75895 245.675226,248.936111 C245.920276,249.113272 246.042798,249.394828 246.042798,249.780787 C246.042798,250.027548 245.982333,250.23476 245.861399,250.402431 C245.740466,250.570101 245.578163,250.695061 245.374486,250.777315 L245.995062,251.802315 C246.020521,251.840278 246.033251,251.884568 246.033251,251.935185 C246.033251,251.99213 246.015748,252.041165 245.980741,252.082292 C245.945734,252.123418 245.893224,252.143981 245.82321,252.143981 L245.574979,252.143981 C245.460411,252.143981 245.368121,252.083874 245.298107,251.963657 L244.677531,250.900694 L243.93284,250.900694 L243.93284,251.935185 C243.93284,251.998457 243.913745,252.049074 243.875556,252.087037 C243.837366,252.125 243.786448,252.143981 243.722798,252.143981 L243.455473,252.143981 C243.391824,252.143981 243.340906,252.125 243.302716,252.087037 Z M244.687078,250.283796 C245.119892,250.283796 245.336296,250.116128 245.336296,249.780787 C245.336296,249.635262 245.286969,249.515047 245.188313,249.420139 C245.089657,249.325231 244.92258,249.277778 244.687078,249.277778 L243.93284,249.277778 L243.93284,250.283796 L244.687078,250.283796 Z" id="Fill-25"></path>
        </g>
    </g>
</svg>