<?xml version="1.0" encoding="UTF-8"?>
<svg width="190px" height="34px" viewBox="0 0 190 34" version="1.1" xmlns="http://www.w3.org/2000/svg" xmlns:xlink="http://www.w3.org/1999/xlink">
    <!-- Generator: Sketch 46.2 (44496) - http://www.bohemiancoding.com/sketch -->
    <title>Fill 1</title>
    <desc>Created with Sketch.</desc>
    <defs></defs>
    <g id="Coriolis" stroke="none" stroke-width="1" fill="none" fill-rule="evenodd">
        <g id="01-Login-B-800x600" transform="translate(-339.000000, -55.000000)" fill="#FFFFFF">
            <g id="Group-6" transform="translate(272.000000, 48.000000)">
                <path d="M157.518021,7.59722506 L158.187524,7.59722506 C158.650503,7.59722506 159.026106,7.97190998 159.026106,8.43402139 L159.026106,38.8993119 C159.026106,39.3614233 158.650503,39.7361083 158.187524,39.7361083 L157.518021,39.7361083 C157.055042,39.7361083 156.679439,39.3614233 156.679439,38.8993119 L156.679439,8.43402139 C156.679439,7.97190998 157.055042,7.59722506 157.518021,7.59722506 L157.518021,7.59722506 Z M231.636608,32.9917796 C232.057601,32.8384994 232.520579,33.0451439 232.695331,33.4572973 C233.723416,35.8723119 235.767104,38.1749211 240.231218,38.1749211 C244.095048,38.1749211 247.039729,35.7871563 247.039729,31.8393396 C247.039729,22.5187683 231.397175,25.1358857 231.397175,14.7593842 C231.397175,10.5356632 234.617601,7 240.091644,7 C244.788382,7 247.313204,9.76131435 248.401431,11.8368417 C248.634056,12.2830574 248.418453,12.8303245 247.946396,13.0063129 L247.504978,13.1698117 C247.114623,13.3151441 246.685687,13.1493744 246.479162,12.7894498 C245.529375,11.1442423 243.578736,9.11186048 240.091644,9.11186048 C235.905544,9.11186048 233.743842,11.6835616 233.743842,14.8048005 C233.743842,23.114858 249.431786,21.2789018 249.431786,31.7008198 C249.431786,36.4763494 245.890226,40.3321979 240.184693,40.3321979 C234.73448,40.3321979 231.961147,37.3131458 230.68909,34.2600313 C230.506395,33.8206281 230.73448,33.3187774 231.182707,33.1564139 L231.636608,32.9917796 Z M223.124834,7.59722506 L223.793203,7.59722506 C224.257316,7.59722506 224.632919,7.97190998 224.632919,8.43402139 L224.632919,38.8993119 C224.632919,39.3614233 224.257316,39.7361083 223.793203,39.7361083 L223.124834,39.7361083 C222.661855,39.7361083 222.286252,39.3614233 222.286252,38.8993119 L222.286252,8.43402139 C222.286252,7.97190998 222.661855,7.59722506 223.124834,7.59722506 L223.124834,7.59722506 Z M202.602847,7.59722506 L203.27235,7.59722506 C203.735329,7.59722506 204.112067,7.97190998 204.112067,8.43402139 L204.112067,37.577696 L216.108663,37.577696 C216.571642,37.577696 216.947245,37.952381 216.947245,38.4144924 L216.947245,38.8993119 C216.947245,39.3614233 216.571642,39.7361083 216.108663,39.7361083 L202.602847,39.7361083 C202.139868,39.7361083 201.764265,39.3614233 201.764265,38.8993119 L201.764265,8.43402139 C201.764265,7.97190998 202.139868,7.59722506 202.602847,7.59722506 L202.602847,7.59722506 Z M180.079157,7 C189.188945,7 196.36625,14.2541272 196.36625,23.6666667 C196.36625,33.1246225 189.143555,40.3333333 180.033767,40.3333333 C170.969369,40.3333333 163.792064,33.2620069 163.792064,23.6666667 C163.792064,14.1632945 171.015894,7 180.079157,7 L180.079157,7 Z M180.079157,38.1283693 C187.855612,38.1283693 193.928803,32.0221405 193.928803,23.6666667 C193.928803,15.4020256 187.855612,9.2038286 180.079157,9.2038286 C172.258447,9.2038286 166.23178,15.4020256 166.23178,23.6666667 C166.23178,32.0221405 172.258447,38.1283693 180.079157,38.1283693 L180.079157,38.1283693 Z M132.384402,8.43402139 C132.384402,7.97190998 132.760005,7.59722506 133.222983,7.59722506 L139.792062,7.59722506 C146.049084,7.59722506 149.407949,11.6370098 149.407949,16.3205713 C149.407949,20.2683879 147.014758,23.3907623 143.426672,24.584077 L150.948942,38.5019188 C151.250786,39.0594046 150.84568,39.7361083 150.210219,39.7361083 L149.498729,39.7361083 C149.187807,39.7361083 148.902985,39.5646615 148.757736,39.2898926 L141.218445,25.0439176 L134.731069,25.0439176 L134.731069,38.8993119 C134.731069,39.3614233 134.355466,39.7361083 133.892487,39.7361083 L133.222983,39.7361083 C132.760005,39.7361083 132.384402,39.3614233 132.384402,38.8993119 L132.384402,8.43402139 Z M139.883977,22.9320571 C144.208516,22.9320571 146.922843,20.4069078 146.922843,16.3205713 C146.922843,12.5101392 144.346956,9.7556373 139.745537,9.7556373 L134.731069,9.7556373 L134.731069,22.9320571 L139.883977,22.9320571 Z M111.327946,7 C120.437734,7 127.61504,14.2541272 127.61504,23.6666667 C127.61504,33.1246225 120.39121,40.3333333 111.281422,40.3333333 C102.218159,40.3333333 95.0408531,33.2620069 95.0408531,23.6666667 C95.0408531,14.1632945 102.264683,7 111.327946,7 L111.327946,7 Z M111.327946,38.1283693 C119.103266,38.1283693 125.176458,32.0221405 125.176458,23.6666667 C125.176458,15.4020256 119.103266,9.2038286 111.327946,9.2038286 C103.506102,9.2038286 97.4794348,15.4020256 97.4794348,23.6666667 C97.4794348,32.0221405 103.506102,38.1283693 111.327946,38.1283693 L111.327946,38.1283693 Z M93.6246828,35.8144061 C93.7483707,36.1414038 93.6609948,36.5104117 93.3954629,36.7386289 C92.0122004,37.9308082 88.3526256,40.3321979 83.1497884,40.3321979 C73.9934757,40.3321979 67,33.1700388 67,23.6666667 C67,14.1632945 74.1773055,7 83.0113487,7 C87.628654,7 90.9682287,8.84049776 92.6873777,10.1428117 C92.9846827,10.3687581 93.0890799,10.7638804 92.9540444,11.1101801 L92.7622714,11.5972705 C92.562555,12.1082045 91.936172,12.2898699 91.4902145,11.9685492 C89.9163137,10.8388174 86.9330511,9.2038286 83.0113487,9.2038286 C75.5117737,9.2038286 69.4385817,15.3566092 69.4385817,23.6666667 C69.4385817,31.9767241 75.1895041,38.1283693 83.1497884,38.1283693 C87.5764554,38.1283693 90.6357464,36.2129346 92.1653919,35.011672 C92.6079451,34.6653723 93.2604274,34.8549856 93.4601437,35.3806799 L93.6246828,35.8144061 Z M252.35725,11.6631944 C251.973695,11.4386563 251.66918,11.1354186 251.443696,10.7534722 C251.218213,10.3715259 251.105472,9.95370597 251.105472,9.5 C251.105472,9.04629403 251.218213,8.62847413 251.443696,8.24652778 C251.66918,7.86458142 251.973695,7.56134372 252.35725,7.33680556 C252.740805,7.1122674 253.160385,7 253.616001,7 C254.071618,7 254.491198,7.1122674 254.874753,7.33680556 C255.258308,7.56134372 255.562823,7.86458142 255.788307,8.24652778 C256.01379,8.62847413 256.126531,9.04629403 256.126531,9.5 C256.126531,9.95370597 256.01379,10.3715259 255.788307,10.7534722 C255.562823,11.1354186 255.258308,11.4386563 254.874753,11.6631944 C254.491198,11.8877326 254.071618,12 253.616001,12 C253.160385,12 252.740805,11.8877326 252.35725,11.6631944 Z M254.641134,11.2881944 C254.952627,11.1006935 255.200191,10.8483812 255.383832,10.53125 C255.567474,10.2141188 255.659293,9.87037222 255.659293,9.5 C255.659293,9.12962778 255.567474,8.78588122 255.383832,8.46875 C255.200191,8.15161878 254.952627,7.89930649 254.641134,7.71180556 C254.329641,7.52430462 253.987934,7.43055556 253.616001,7.43055556 C253.244069,7.43055556 252.9012,7.52430462 252.587382,7.71180556 C252.273564,7.89930649 252.024838,8.15161878 251.841197,8.46875 C251.657555,8.78588122 251.565736,9.12962778 251.565736,9.5 C251.565736,9.87037222 251.657555,10.2141188 251.841197,10.53125 C252.024838,10.8483812 252.273564,11.1006935 252.587382,11.2881944 C252.9012,11.4756954 253.244069,11.5694444 253.616001,11.5694444 C253.987934,11.5694444 254.329641,11.4756954 254.641134,11.2881944 Z M252.695474,10.7222222 C252.667579,10.6944443 252.653632,10.6574076 252.653632,10.6111111 L252.653632,8.375 C252.653632,8.32870347 252.667579,8.29166681 252.695474,8.26388889 C252.723369,8.23611097 252.760562,8.22222222 252.807053,8.22222222 L253.720607,8.22222222 C254.013503,8.22222222 254.249444,8.28703639 254.428437,8.41666667 C254.607429,8.54629694 254.696924,8.7523134 254.696924,9.03472222 C254.696924,9.21527868 254.652757,9.36689753 254.564424,9.48958333 C254.47609,9.61226913 254.357538,9.7037034 254.208765,9.76388889 L254.662055,10.5138889 C254.680652,10.5416668 254.68995,10.5740739 254.68995,10.6111111 C254.68995,10.652778 254.677165,10.6886573 254.651595,10.71875 C254.626024,10.7488427 254.587669,10.7638889 254.536529,10.7638889 L254.355213,10.7638889 C254.271528,10.7638889 254.204116,10.7199078 254.152976,10.6319444 L253.699686,9.85416667 L253.155738,9.85416667 L253.155738,10.6111111 C253.155738,10.6574076 253.141791,10.6944443 253.113896,10.7222222 C253.086001,10.7500001 253.048808,10.7638889 253.002317,10.7638889 L252.807053,10.7638889 C252.760562,10.7638889 252.723369,10.7500001 252.695474,10.7222222 Z M253.706659,9.40277778 C254.022802,9.40277778 254.180871,9.28009382 254.180871,9.03472222 C254.180871,8.92824021 254.14484,8.84027813 254.072778,8.77083333 C254.000716,8.70138854 253.878678,8.66666667 253.706659,8.66666667 L253.155738,8.66666667 L253.155738,9.40277778 L253.706659,9.40277778 Z" id="Fill-1"></path>
            </g>
        </g>
    </g>
</svg>