<?xml version="1.0" encoding="UTF-8"?>
<svg width="228px" height="204px" viewBox="0 0 228 204" version="1.1" xmlns="http://www.w3.org/2000/svg" xmlns:xlink="http://www.w3.org/1999/xlink">
    <!-- Generator: Sketch 46.2 (44496) - http://www.bohemiancoding.com/sketch -->
    <title>Coriolis-Symbol-Stroke</title>
    <desc>Created with Sketch.</desc>
    <defs></defs>
    <g id="Symbols" stroke="none" stroke-width="1" fill="none" fill-rule="evenodd">
        <g id="Coriolis-Splash" transform="translate(-14.000000, -15.000000)" stroke-width="2.28554153">
            <g id="Coriolis-Symbol-Stroke" transform="translate(16.000000, 16.000000)">
                <path d="M157.419516,201.501442 C157.023401,201.501442 156.632003,201.496717 156.240604,201.491992 C127.894856,200.948617 92.9754975,181.108332 65.115461,149.715416 C22.170073,101.321941 8.18346697,40.0811844 33.9356097,13.2053706 C42.1879902,4.59641612 53.8497827,0.183263853 67.7609384,0.447863989 C96.1066865,0.991239268 131.021329,20.8315245 158.881366,52.2244406 C201.83147,100.617916 215.818076,161.853947 190.061217,188.734486 C182.049335,197.102465 170.778941,201.501442 157.419516,201.501442" id="Fill-3" stroke="#0044CA"></path>
                <path d="M161.323258,184.502886 C135.396636,184.502886 102.844532,170.616104 74.4327649,147.080867 C27.6064002,108.302772 6.34355244,55.4063697 27.0310914,29.1637062 C33.3924978,21.0981271 43.2812075,16.1463245 55.6314843,14.8280488 C82.5342447,11.9646974 118.519339,26.1680547 149.571868,51.8862429 C196.393517,90.6643379 217.656365,143.565465 196.968826,169.808129 C190.612135,177.868983 180.723426,182.82551 168.368433,184.139061 C166.08606,184.380036 163.732953,184.502886 161.323258,184.502886" id="Fill-6" stroke="#2F81B7"></path>
                <path d="M162.413328,169.057445 C139.674483,169.057445 111.262716,160.991866 83.7893626,145.210358 C49.0491986,125.256673 23.5517007,97.5823337 17.2563134,72.9934211 C14.6202672,62.7070908 15.6058373,53.351586 20.1187105,45.9427822 C35.6803422,20.371069 89.5565977,23.2391455 140.207351,52.3404355 C174.947515,72.2941207 200.445013,99.96846 206.745116,124.557373 C209.381162,134.843703 208.390877,144.199208 203.878003,151.608012 C196.757378,163.311843 181.606007,169.057445 162.413328,169.057445" id="Fill-8" stroke="#159588"></path>
                <path d="M157.763405,157.125514 C138.533001,157.125514 116.011076,153.189587 93.1873492,145.057857 C54.8302847,131.397875 23.9050783,108.656439 14.4077673,87.1340526 C10.7814355,78.9078234 10.3758899,71.3052945 13.2052775,64.534366 C23.6032769,39.6572282 76.3619243,35.1921009 130.813489,54.5835109 C169.170553,68.2482179 200.095759,90.9849296 209.59307,112.512041 C213.219402,120.733545 213.624948,128.336074 210.790845,135.111727 C204.754818,149.560785 184.420952,157.125514 157.763405,157.125514" id="Fill-10" stroke="#8CC152"></path>
                <path d="M143.485265,146.874005 C130.705865,146.874005 116.907885,145.740005 102.600615,143.358603 C59.7495396,136.228575 23.7314355,119.331966 10.8388594,100.318556 C6.53819026,93.9823279 5.01503661,87.7169747 6.3165549,81.6973216 C11.6216566,57.0847839 62.1780973,45.527428 121.401895,55.3837831 C164.25297,62.5185367 200.271074,79.4104204 213.163651,98.4238302 C217.459604,104.764783 218.982758,111.030137 217.685955,117.045065 C213.663509,135.713549 183.605982,146.874005 143.485265,146.874005" id="Fill-12" stroke="#CDDA49"></path>
                <path d="M111.997653,141.923808 C49.1952308,141.923808 0,123.174998 0,99.2381357 C0,75.2965484 49.1952308,56.5477387 111.997653,56.5477387 C174.804769,56.5477387 224,75.2965484 224,99.2381357 C224,123.174998 174.804769,141.923808 111.997653,141.923808" id="Fill-25" stroke="#FFDC00"></path>
                <path d="M80.5186371,146.874005 C40.3936114,146.874005 10.3411036,135.713549 6.31398271,117.045065 C5.01719318,111.030137 6.54033142,104.764783 10.840957,98.4238302 C23.7286871,79.4104204 59.7464267,62.5185367 102.601784,55.3837831 C161.829698,45.527428 212.380912,57.0847839 217.68596,81.6973216 C218.982749,87.7122497 217.459611,93.9776029 213.163701,100.318556 C200.271255,119.331966 164.253516,136.228575 121.402874,143.358603 C107.095749,145.740005 93.2979084,146.874005 80.5186371,146.874005" id="Fill-23" stroke="#FDC02F"></path>
                <path d="M66.2370135,157.125514 C39.5794667,157.125514 19.2456012,149.560785 13.2048587,135.107002 C10.3754711,128.336074 10.7810166,120.733545 14.4073484,112.512041 C23.9046594,90.9896546 54.8251502,68.2482179 93.1869303,54.5835109 C147.633779,35.1921009 200.392426,39.6572282 210.795141,64.534366 C213.624529,71.3052945 213.218983,78.9078234 209.592652,87.1340526 C200.095341,108.656439 169.170134,131.397875 130.81307,145.057857 C107.994059,153.184862 85.4674178,157.125514 66.2370135,157.125514" id="Fill-21" stroke="#FD9727"></path>
                <path d="M61.5826709,169.055835 C42.3899917,169.055835 27.2433368,163.310232 20.1179957,151.606401 C15.6098381,144.197597 14.6195525,134.842093 17.2555986,124.555762 C23.5557016,99.9668496 49.0484839,72.2972354 83.7886479,52.3388251 C134.439401,23.2422602 188.315657,20.3694587 203.882004,45.9411718 C208.390162,53.3499756 209.380448,62.7054805 206.744401,72.9965358 C200.444298,97.5807234 174.951516,125.255063 140.211352,145.208748 C112.737999,160.990256 84.3215159,169.055835 61.5826709,169.055835" id="Fill-19" stroke="#FC5830"></path>
                <path d="M62.6767421,184.499862 C60.267047,184.499862 57.9139396,184.381737 55.631567,184.136037 C43.2765745,182.822486 33.3878648,177.865959 27.031174,169.80038 L27.031174,169.805105 C6.34363509,143.562441 27.6064829,90.661314 74.4281319,51.883219 C105.480661,26.1650308 141.46104,11.9758485 168.368516,14.825025 C180.718793,16.1433006 190.607502,21.0951032 196.968909,29.1606823 C217.656448,55.4033458 196.3936,108.299748 149.567235,147.077843 C121.155468,170.608355 88.6033637,184.499862 62.6767421,184.499862" id="Fill-17" stroke="#FF2D55"></path>
                <path d="M66.5805768,201.501066 C53.2211517,201.501066 41.9507578,197.102089 33.9388753,188.73411 C8.18201685,161.858296 22.1686229,100.617539 65.1140109,52.2240644 C92.9787631,20.8311482 127.893406,0.990863039 156.239154,0.447487759 C170.107869,0.187612625 181.812102,4.59603989 190.064483,13.2049943 C215.816625,40.0855331 201.830019,101.321565 158.884631,149.71504 C131.019879,181.107956 96.1052363,200.948241 67.7594883,201.491616 C67.3680897,201.496341 66.9719754,201.501066 66.5805768,201.501066" id="Fill-14" stroke="#F91661"></path>
            </g>
        </g>
    </g>
</svg>