<?xml version="1.0" encoding="UTF-8"?>
<svg width="224px" height="37px" viewBox="0 0 224 37" version="1.1" xmlns="http://www.w3.org/2000/svg" xmlns:xlink="http://www.w3.org/1999/xlink">
    <!-- Generator: Sketch 47.1 (45422) - http://www.bohemiancoding.com/sketch -->
    <title>Group 6</title>
    <desc>Created with Sketch.</desc>
    <defs></defs>
    <g id="Coriolis" stroke="none" stroke-width="1" fill="none" fill-rule="evenodd">
        <g id="Login-on-small-screen" transform="translate(-288.000000, -98.000000)">
            <g id="Group" transform="translate(288.000000, 95.000000)">
                <g id="Group-6">
                    <g id="ID/Coriolis/Symbol-Small" stroke-width="0.7">
                        <path d="M29.1613192,39.2864567 C29.0901424,39.2864567 29.019813,39.2856175 28.9494836,39.2847784 C23.856107,39.1882754 17.5815347,35.6646604 12.5754344,30.0893096 C4.85868499,21.4946764 2.34546672,10.6183787 6.97280487,5.84526074 C8.45565449,4.31631895 10.5511328,3.53254748 13.0507936,3.5795402 C18.1441702,3.67604311 24.4178951,7.19965812 29.4239954,12.7750089 C37.1415922,21.3696422 39.6548105,32.2451007 35.026625,37.0190578 C33.5869898,38.5052027 31.5618409,39.2864567 29.1613192,39.2864567" id="Fill-3" stroke="#0044CA"></path>
                        <path d="M29.8627729,36.2675299 C25.2040831,36.2675299 19.3548768,33.8012511 14.2496374,29.6214163 C5.83552504,22.7344651 2.01485708,13.3401164 5.73214924,8.67944535 C6.87521446,7.24700648 8.65209197,6.36757125 10.8712823,6.13344679 C15.7053721,5.62491841 22.1714438,8.1474206 27.7511951,12.7149454 C36.1644601,19.6018966 39.9851281,28.9970845 36.2678359,33.6577555 C35.125618,35.0893552 33.3487405,35.9696296 31.1287028,36.2029149 C30.718589,36.2457119 30.295765,36.2675299 29.8627729,36.2675299" id="Fill-6" stroke="#2F81B7"></path>
                        <path d="M30.0586449,33.5244349 C25.9727587,33.5244349 20.8675193,32.0919961 15.9309011,29.2892158 C9.68852788,25.7454611 5.10694623,20.8305259 3.97574381,16.4635593 C3.50207927,14.6367172 3.67917388,12.9751888 4.49008079,11.6593926 C7.2863115,7.11788169 16.9672011,7.62724923 26.0685084,12.7956095 C32.3108816,16.3393643 36.8924633,21.2542995 38.0245131,25.6212661 C38.4981776,27.4481081 38.3202356,29.1096365 37.5093287,30.4254327 C36.2298414,32.5040215 33.5073295,33.5244349 30.0586449,33.5244349" id="Fill-8" stroke="#159588"></path>
                        <path d="M29.2231119,31.4053357 C25.7676486,31.4053357 21.7207402,30.7063189 17.6196018,29.2621319 C10.7273168,26.8361326 5.17044375,22.7972759 3.46389568,18.9749215 C2.81228919,17.5139513 2.73941772,16.1637497 3.24782331,14.9612395 C5.11621383,10.5430845 14.5962833,9.75008228 24.3805487,13.1939775 C31.2728337,15.6208159 36.8297068,19.6588334 38.5362548,23.482027 C39.1878613,24.942158 39.2607328,26.2923596 38.7514799,27.495709 C37.6668813,30.0618473 34.0131398,31.4053357 29.2231119,31.4053357" id="Fill-10" stroke="#8CC152"></path>
                        <path d="M26.6575086,29.5846779 C24.3612101,29.5846779 21.8818855,29.3832805 19.311048,28.960346 C11.6112454,27.69406 5.13924232,24.693239 2.82260755,21.3164763 C2.04983106,20.1911684 1.77613939,19.0784479 2.01000596,18.0093634 C2.96326643,13.6382011 12.0476269,11.5856261 22.6894031,13.336105 C30.3892056,14.6032302 36.8612087,17.603212 39.1778435,20.9799748 C39.9497726,22.1061218 40.2234643,23.2188423 39.9904451,24.2870876 C39.2676618,27.602592 33.8666998,29.5846779 26.6575086,29.5846779" id="Fill-12" stroke="#CDDA49"></path>
                        <path d="M20.9995783,28.7055277 C9.71476804,28.7055277 0.875,25.3757577 0.875,21.1245946 C0.875,16.8725924 9.71476804,13.5428224 20.9995783,13.5428224 C32.285232,13.5428224 41.125,16.8725924 41.125,21.1245946 C41.125,25.3757577 32.285232,28.7055277 20.9995783,28.7055277" id="Fill-25" stroke="#FFDC00"></path>
                        <path d="M15.3431926,29.5846779 C8.13322705,29.5846779 2.73316706,27.602592 2.00954377,24.2870876 C1.7765269,23.2188423 2.0502158,22.1061218 2.82298447,20.9799748 C5.13874847,17.603212 11.6106861,14.6032302 19.311258,13.336105 C29.9537739,11.5856261 39.0371951,13.6382011 39.9904459,18.0093634 C40.2234627,19.0776087 39.9497738,20.1903292 39.1778525,21.3164763 C36.8612412,24.693239 30.3893036,27.69406 22.6895789,28.960346 C20.1187674,29.3832805 17.6394679,29.5846779 15.3431926,29.5846779" id="Fill-23" stroke="#FDC02F"></path>
                        <path d="M12.7769634,31.4053357 C7.98693542,31.4053357 4.33319396,30.0618473 3.24774804,27.4948698 C2.73934246,26.2923596 2.81221393,24.942158 3.46382042,23.482027 C5.17036849,19.6596726 10.7263942,15.6208159 17.6195265,13.1939775 C27.4029447,9.75008228 36.8830141,10.5430845 38.752252,14.9612395 C39.2606575,16.1637497 39.1877861,17.5139513 38.5361796,18.9749215 C36.8296315,22.7972759 31.2727585,26.8361326 24.3804735,29.2621319 C20.2801824,30.7054798 16.2324266,31.4053357 12.7769634,31.4053357" id="Fill-21" stroke="#FD9727"></path>
                        <path d="M11.9406362,33.5241489 C8.49195164,33.5241489 5.77028708,32.5037355 4.48995235,30.4251467 C3.67989279,29.1093505 3.50195084,27.4478221 3.97561537,25.6209801 C5.10766514,21.2540135 9.68839944,16.3399174 15.9307727,12.7953235 C25.0320799,7.62780239 34.7129696,7.11759569 37.5100476,11.6591066 C38.3201072,12.9749029 38.4980492,14.6364312 38.0243846,16.4641125 C36.8923349,20.8302399 32.3116006,25.7451751 26.0692273,29.2889299 C21.1326091,32.0917101 16.0265224,33.5241489 11.9406362,33.5241489" id="Fill-19" stroke="#FC5830"></path>
                        <path d="M12.1372271,36.2669929 C11.704235,36.2669929 11.281411,36.246014 10.8712972,36.2023779 C8.65125948,35.9690926 6.87438196,35.0888182 5.73216409,33.6563793 L5.73216409,33.6572185 C2.01487193,28.9965474 5.83553989,19.6013596 14.2488049,12.7144083 C19.8285562,8.14688356 26.2937806,5.62689883 31.1287177,6.13290975 C33.347908,6.36703421 35.1247855,7.24646944 36.2678508,8.67890831 C39.9851429,13.3395794 36.164475,22.733928 27.7503626,29.6208793 C22.6451232,33.7998749 16.7959169,36.2669929 12.1372271,36.2669929" id="Fill-17" stroke="#FF2D55"></path>
                        <path d="M12.8386974,39.2863898 C10.4381757,39.2863898 8.41302679,38.5051358 6.97339165,37.018991 C2.34520615,32.2458731 4.85842442,21.3695754 12.5751738,12.7749421 C17.5821215,7.1995913 23.8558464,3.67597629 28.949223,3.57947338 C31.4412577,3.53331982 33.5443621,4.31625213 35.0272117,5.84519392 C39.6545499,10.619151 37.1413316,21.4946096 29.4245822,30.0892428 C24.4176346,35.6645936 18.1439097,39.1882086 13.0505331,39.2847115 C12.9802036,39.2855507 12.9090268,39.2863898 12.8386974,39.2863898" id="Fill-14" stroke="#F91661"></path>
                    </g>
                    <path d="M138.7147,7 L139.2853,7 C139.679884,7 140,7.32643256 140,7.72903271 L140,34.2709673 C140,34.6735674 139.679884,35 139.2853,35 L138.7147,35 C138.320116,35 138,34.6735674 138,34.2709673 L138,7.72903271 C138,7.32643256 138.320116,7 138.7147,7 L138.7147,7 Z M203.913676,28.6136186 C204.294241,28.4802602 204.712761,28.660047 204.870731,29.0186327 C205.80009,31.119767 207.647525,33.1231052 211.682954,33.1231052 C215.175744,33.1231052 217.83765,31.0456791 217.83765,27.6109616 C217.83765,19.5017883 203.697236,21.778758 203.697236,12.7508942 C203.697236,9.07613176 206.608407,6 211.556783,6 C215.802497,6 218.084864,8.40242532 219.068589,10.2081957 C219.278875,10.5964165 219.083976,11.0725551 218.65725,11.2256702 L218.258221,11.3679191 C217.905352,11.4943625 217.517606,11.350138 217.330913,11.0369929 C216.472333,9.60561365 214.709013,7.8373812 211.556783,7.8373812 C207.77267,7.8373812 205.818554,10.0748373 205.818554,12.7904077 C205.818554,20.020404 220,18.4230678 220,27.4904452 C220,31.6452975 216.798532,35 211.640897,35 C206.714063,35 204.20705,32.3733352 203.057147,29.7170351 C202.891996,29.3347413 203.098179,28.8981163 203.503363,28.7568553 L203.913676,28.6136186 Z M195.7147,7 L196.284333,7 C196.679884,7 197,7.32643256 197,7.72903271 L197,34.2709673 C197,34.6735674 196.679884,35 196.284333,35 L195.7147,35 C195.320116,35 195,34.6735674 195,34.2709673 L195,7.72903271 C195,7.32643256 195.320116,7 195.7147,7 L195.7147,7 Z M177.718012,7 L178.291256,7 C178.687668,7 179.010239,7.32643256 179.010239,7.72903271 L179.010239,33.1195506 L189.281988,33.1195506 C189.678401,33.1195506 190,33.4459832 190,33.8485833 L190,34.2709673 C190,34.6735674 189.678401,35 189.281988,35 L177.718012,35 C177.321599,35 177,34.6735674 177,34.2709673 L177,7.72903271 C177,7.32643256 177.321599,7 177.718012,7 L177.718012,7 Z M158.5,6 C166.610221,6 173,12.3110907 173,20.5 C173,28.7284216 166.569811,35 158.45959,35 C150.389779,35 144,28.847946 144,20.5 C144,12.2320662 150.431199,6 158.5,6 L158.5,6 Z M157.999017,33 C164.737463,33 170,27.7222767 170,20.5004907 C170,13.357213 164.737463,8 157.999017,8 C151.222222,8 146,13.357213 146,20.5004907 C146,27.7222767 151.222222,33 157.999017,33 L157.999017,33 Z M116,7.72903271 C116,7.32643256 116.32195,7 116.718794,7 L122.349506,7 C127.712737,7 130.591803,10.5195365 130.591803,14.5999435 C130.591803,18.0393556 128.540469,20.7596269 125.464927,21.7992652 L131.912671,33.9247509 C132.171398,34.410443 131.824159,35 131.279471,35 L130.669615,35 C130.403107,35 130.15897,34.8506324 130.03447,34.6112485 L123.572136,22.1998869 L118.011455,22.1998869 L118.011455,34.2709673 C118.011455,34.6735674 117.689505,35 117.292661,35 L116.718794,35 C116.32195,35 116,34.6735674 116,34.2709673 L116,7.72903271 Z M122.6492,19 C126.551005,19 129,16.8919431 129,13.4805687 C129,10.2995261 126.675912,8 122.524293,8 L118,8 L118,19 L122.6492,19 Z M98.5,6 C106.610221,6 113,12.3110907 113,20.5 C113,28.7284216 106.568801,35 98.4585801,35 C90.3897791,35 84,28.847946 84,20.5 C84,12.2320662 90.4311991,6 98.5,6 L98.5,6 Z M98,33 C104.737463,33 110,27.7222767 110,20.5004907 C110,13.357213 104.737463,8 98,8 C91.2222222,8 86,13.357213 86,20.5004907 C86,27.7222767 91.2222222,33 98,33 L98,33 Z M222,7.56010929 L222,7 L222.343793,7 L223.044369,7 C223.331059,7 223.562001,7.05100131 223.737201,7.15300546 C223.912401,7.25500962 224,7.41712093 224,7.63934426 C224,7.78142148 223.956769,7.90072811 223.870307,7.99726776 C223.783845,8.0938074 223.667805,8.16575568 223.522184,8.21311475 L223.96587,8.80327869 C223.984073,8.82513672 223.993174,8.85063738 223.993174,8.87978142 C223.993174,8.91256847 223.98066,8.94080134 223.955631,8.96448087 C223.930603,8.98816041 223.893061,9 223.843003,9 L223.665529,9 C223.583617,9 223.517634,8.96539197 223.467577,8.89617486 L223.023891,8.28415301 L222.491468,8.28415301 L222.491468,8.87978142 C222.491468,8.91621148 222.477816,8.94535508 222.450512,8.96721311 C222.423208,8.98907115 222.386803,9 222.341297,9 L222.150171,9 C222.104664,9 222.06826,8.98907115 222.040956,8.96721311 C222.013652,8.94535508 222,8.91621148 222,8.87978142 L222,7.56010929 Z M223.382575,6.03524822 C223.258805,6.01174936 223.13128,6 223,6 C222.637035,6 222.302779,6.08981392 221.997222,6.26944444 C221.691665,6.44907497 221.449075,6.69166514 221.269444,6.99722222 C221.089814,7.30277931 221,7.63703522 221,8 C221,8.36296478 221.089814,8.69722069 221.269444,9.00277778 C221.449075,9.30833486 221.691665,9.55092503 221.997222,9.73055556 C222.302779,9.91018608 222.637035,10 223,10 C223.000568,10 223.001136,9.99999978 223.001704,9.99999934 C223.002271,9.99999978 223.002839,10 223.003407,10 C223.27052,10 223.521679,9.95105746 223.756888,9.8531713 C223.520735,9.95084996 223.269009,9.99979228 223.001704,9.99999934 Z M81.952396,31.0693872 C82.0590239,31.3538849 81.9836996,31.6749327 81.754792,31.8734884 C80.5623199,32.9107198 77.4075027,35 72.9222819,35 C65.0288802,35 59,28.7687093 59,20.5004939 C59,12.2322785 65.1873548,6 72.8029369,6 C76.7833869,6 79.6623411,7.6012876 81.1443715,8.73433934 C81.4006698,8.93091937 81.4906677,9.27468747 81.3742574,9.57597847 L81.2089352,9.99976156 C81.0367653,10.4442893 80.496778,10.6023436 80.1123305,10.322785 C78.7555145,9.33988487 76.1837271,7.91739619 72.8029369,7.91739619 C66.3377625,7.91739619 61.1022333,13.2704977 61.1022333,20.5004939 C61.1022333,27.7304902 66.059943,33.0826038 72.9222819,33.0826038 C76.738388,33.0826038 79.3757174,31.4161188 80.6943821,30.3709848 C81.0758948,30.0696938 81.6383816,30.2346629 81.8105515,30.6920326 L81.952396,31.0693872 Z M223.382575,6.03524822 C223.258805,6.01174936 223.13128,6 223,6 C222.637035,6 222.302779,6.08981392 221.997222,6.26944444 C221.691665,6.44907497 221.449075,6.69166514 221.269444,6.99722222 C221.089814,7.30277931 221,7.63703522 221,8 C221,8.36296478 221.089814,8.69722069 221.269444,9.00277778 C221.449075,9.30833486 221.691665,9.55092503 221.997222,9.73055556 C222.302779,9.91018608 222.637035,10 223,10 C223.000568,10 223.001136,9.99999978 223.001704,9.99999934 Z M222,7.56010929 L222,8 L222.537415,8 C222.845807,8 223,7.833335 223,7.5 C223,7.35534519 222.964853,7.23584953 222.894558,7.14150943 C222.824263,7.04716934 222.705216,7 222.537415,7 L222.343793,7 L222.150171,7 C222.104664,7 222.06826,7.01092885 222.040956,7.03278689 C222.013652,7.05464492 222,7.08378852 222,7.12021858 L222,7.56010929 Z" id="Fill-1" fill="#FFFFFF"></path>
                </g>
            </g>
        </g>
    </g>
</svg>