<?xml version="1.0" encoding="UTF-8"?>
<svg width="48px" height="44px" viewBox="0 0 48 44" version="1.1" xmlns="http://www.w3.org/2000/svg" xmlns:xlink="http://www.w3.org/1999/xlink">
    <!-- Generator: Sketch 47 (45396) - http://www.bohemiancoding.com/sketch -->
    <title>Icon-Replica-White</title>
    <desc>Created with Sketch.</desc>
    <defs></defs>
    <g id="Symbols" stroke="none" stroke-width="1" fill="none" fill-rule="evenodd">
        <g id="Elements/Migration" transform="translate(-48.000000, -10.000000)">
            <g id="Icon/ListItem/48" transform="translate(48.000000, 8.000000)">
                <path d="M8.56957458,6.7868 L1.17775396,19.2118 C0.399760797,20.5218587 0.00617395647,22.238711 0,23.9601474 C0.00616856622,25.7598885 0.397751035,27.4757452 1.17775396,28.7878 L8.56957458,41.2128 C10.1379331,43.8508 13.9249451,45.9998 17.0183762,45.9998 L30.9815989,45.9998 C34.0790566,45.9998 37.8580154,43.8568 39.4314072,41.2128 L46.8222211,28.7878 C47.5923073,27.4918 47.9859069,25.7978 48,24.0958 L48,23.9038 C47.9859069,22.2028 47.593314,20.5088 46.8222211,19.2118 L39.4314072,6.7868 C37.8707893,4.16350357 34.1181723,2.0237712 31.0334058,2 L16.9664762,2 C13.8798077,2.02374356 10.1331854,4.15854855 8.56957458,6.7868 Z" id="Clip-2" fill="#E7E7E7" fill-rule="evenodd"></path>
                <path d="M8.56957458,6.7868 L1.17775396,19.2118 C0.399760797,20.5218587 0.00617395647,22.238711 0,23.9601474 C0.00616856622,25.7598885 0.397751035,27.4757452 1.17775396,28.7878 L8.56957458,41.2128 C10.1379331,43.8508 13.9249451,45.9998 17.0183762,45.9998 L30.9815989,45.9998 C34.0790566,45.9998 37.8580154,43.8568 39.4314072,41.2128 L46.8222211,28.7878 C47.5923073,27.4918 47.9859069,25.7978 48,24.0958 L48,23.9038 C47.9859069,22.2028 47.593314,20.5088 46.8222211,19.2118 L39.4314072,6.7868 C37.8707893,4.16350357 34.1181723,2.0237712 31.0334058,2 L16.9664762,2 C13.8798077,2.02374356 10.1331854,4.15854855 8.56957458,6.7868 Z" id="Clip-2-Copy" fill="#C8CCD7" fill-rule="evenodd"></path>
                <g id="Icon/Replica/32" stroke="#979797" stroke-width="1" transform="translate(8.000000, 8.000000)">
                    <path d="M28.7023973,12.5798082 C30.7699602,13.5353809 32,14.7300321 32,16.0247155 C32,17.3543537 30.7020802,18.5785624 28.5316929,19.5465755 C29.49947,23.1572755 29.1542044,26.3856538 27.2722447,28.3073546 C26.154915,29.4489637 24.5587297,30.0279324 22.6537173,29.9979974 C20.6697177,29.9609155 18.4536262,29.2679963 16.2364965,28.0483619 C14.0194849,29.267879 11.8034331,29.9607824 9.81946563,29.9981978 C7.91861717,30.0369772 6.31896193,29.4491641 5.20093824,28.307555 C3.35062719,26.4181712 2.98576008,23.2656888 3.89378014,19.7286092 C1.46860093,18.7342759 -1.81188398e-13,17.4391484 -1.81188398e-13,16.0247155 C-1.81188398e-13,14.6440547 1.39869873,13.3771531 3.72019177,12.3926389 C2.77240267,8.80625147 3.12423999,5.60302804 4.99574422,3.69200349 C6.0811502,2.58305066 7.61904001,2 9.45048912,2 C9.50462062,2 9.55944611,2.00068034 9.6142716,2.00136068 C11.6595682,2.03958828 13.9515193,2.77480421 16.2368973,4.0655448 C18.5222478,2.77492849 20.8140719,2.03978668 22.8589113,2.00156105 C22.9137368,2.00088071 22.9685623,2.00020037 23.0226938,2.00020037 C24.8541429,2.00020037 26.3920327,2.58325103 27.4774387,3.69220386 C29.381406,5.63637695 29.7125289,8.91796655 28.7023973,12.5798082 Z M8.33266178,11.0478882 C6.56700765,11.390987 5.00276639,11.8487161 3.72019177,12.3926389 C4.0482157,13.6338653 4.53191009,14.9209875 5.16215305,16.216321 C5.96188381,14.4856299 7.02600797,12.7326978 8.33266178,11.0478882 Z M24.4299399,20.8427396 C25.9984246,20.4967757 27.3865083,20.0573386 28.5316929,19.5465755 C28.2411368,18.4625336 27.8322253,17.3440299 27.3110108,16.2160795 C26.5558379,17.7681123 25.5902529,19.3319397 24.4299399,20.8427396 Z M28.7023973,12.5798082 C27.47788,12.013869 25.9595916,11.5317893 24.2290731,11.1624547 C23.74349,10.5298761 23.223771,9.90657812 22.6710671,9.29731783 C20.6892978,7.11232284 18.4662249,5.32462905 16.2368973,4.0655448 C14.0073631,5.32463976 11.7839902,7.11240731 9.80211579,9.2975182 C9.28286703,9.86989997 8.79273091,10.4546714 8.33266178,11.0478882 C10.610541,10.6052547 13.2236459,10.3534083 15.9996546,10.3534083 C19.0069362,10.3534083 21.8231203,10.648966 24.2290731,11.1624547 C25.4953092,12.8120053 26.5294247,14.5246635 27.3110108,16.2160795 C27.9096203,14.9858162 28.3760197,13.7629638 28.7023973,12.5798082 Z M16.2364965,28.0483619 C18.5345195,26.7842827 20.8335736,24.9544009 22.8762612,22.7022407 C23.4273236,22.0947898 23.9455968,21.4733845 24.4299399,20.8427396 C21.9804695,21.3830242 19.0910293,21.6953424 15.9996546,21.6953424 C13.1429148,21.6953424 10.4586915,21.4286348 8.13478245,20.9617854 C6.93363767,19.4142553 5.93710833,17.8090806 5.16215305,16.216321 C4.61175294,17.4074376 4.18658618,18.5880195 3.89378014,19.7286092 C5.09388437,20.2206567 6.52823384,20.6390463 8.13478245,20.9617854 C8.59252744,21.5515346 9.07998874,22.1329121 9.59622777,22.7020403 C11.6392366,24.9541653 13.9384243,26.7842014 16.2364965,28.0483619 Z" id="Combined-Shape" stroke="#F91661"></path>
                </g>
            </g>
        </g>
    </g>
</svg>