<?xml version="1.0" encoding="UTF-8"?>
<svg width="64px" height="60px" viewBox="0 0 64 60" version="1.1" xmlns="http://www.w3.org/2000/svg" xmlns:xlink="http://www.w3.org/1999/xlink">
    <!-- Generator: Sketch 47.1 (45422) - http://www.bohemiancoding.com/sketch -->
    <title>Icon-CentOS Copy</title>
    <desc>Created with Sketch.</desc>
    <defs></defs>
    <g id="Coriolis" stroke="none" stroke-width="1" fill="none" fill-rule="evenodd">
        <g id="=Endpoint-Overview" transform="translate(-256.000000, -82.000000)">
            <g id="SubMenu-Copy" transform="translate(0.000000, 64.000000)">
                <g id="Icon/ListItem/64" transform="translate(256.000000, 16.000000)">
                    <path d="M22.6219682,2 C18.5064103,2.03237774 13.5109139,4.94348867 11.4260994,8.52748422 L1.57033861,25.470743 C0.533014396,27.2571949 0.00823194196,29.5983677 0,31.9457916 L1.40746491e-17,32.0552922 C0.00822475496,34.3999953 0.530334713,36.7398104 1.57033861,38.5289842 L11.4260994,55.4722431 C13.5172441,59.0695321 18.5665935,62 22.6911683,62 L41.3087985,62 C45.4387421,62 50.4773539,59.077714 52.5752096,55.4722431 L62.4296282,38.5289842 C63.4564098,36.7617035 63.9812092,34.451693 64,32.1307733 L64,31.8689539 C63.9812092,29.549398 63.457752,27.2393875 62.4296282,25.470743 L52.5752096,8.52748422 C50.4943857,4.95024555 45.4908964,2.03241542 41.3778743,2 L22.6219682,2 L22.6219682,2 Z" id="Clip-2" fill="#FFFFFF" fill-rule="evenodd"></path>
                    <g id="Icon/Endpoint/48" stroke="#979797" stroke-width="1" transform="translate(8.000000, 8.000000)" stroke-linecap="round">
                        <path d="M20.125134,10.421875 C15.1195822,10.421875 11.1114208,14.5004047 10.8983032,19.6005621 C7.27297862,20.6189973 4.62567019,23.9879746 4.62567019,27.9819007 C4.62567019,32.8066976 8.46566236,36.7615145 13.1503753,36.7615145 L36.3995711,36.7615145 C40.2318135,36.7615145 43.3743298,33.5250296 43.3743298,29.5781941 C43.3743298,26.465422 41.3593995,23.8251527 38.6516432,22.8929173 C38.4873489,18.2133832 34.7814271,14.4126085 30.1997855,14.4126085 C29.3945884,14.4126085 28.6451893,14.6169341 27.8988901,14.8372226 C26.2334727,12.2272829 23.393196,10.421875 20.125134,10.421875 L20.125134,10.421875 Z" id="Path" stroke="#0044CA" stroke-width="1.3" transform="translate(24.000000, 23.591695) scale(-1, 1) translate(-24.000000, -23.591695) "></path>
                        <path d="M20.875,26.875 L28.2773437,26.875" id="Stroke-7" stroke="#0044CA" stroke-width="1.3"></path>
                        <path d="M22.6328125,29.0605508 C22.0384297,30.0326117 21.0294483,30.671875 19.8850525,30.671875 L17.310162,30.671875 C15.4820675,30.671875 14,29.0402466 14,27.0269638 L14,26.7233534 C14,24.7100706 15.4820675,23.078125 17.310162,23.078125 L19.8850525,23.078125 C21.028584,23.078125 22.0364129,23.7161193 22.6310838,24.6869112" id="Stroke-9" stroke="#0044CA" stroke-width="1.3"></path>
                        <path d="M35.25,29.0605508 C34.6556172,30.0326117 33.6466358,30.671875 32.50224,30.671875 L29.9273495,30.671875 C28.099255,30.671875 26.6171875,29.0402466 26.6171875,27.0269638 L26.6171875,26.7233534 C26.6171875,24.7100706 28.099255,23.078125 29.9273495,23.078125 L32.50224,23.078125 C33.6457715,23.078125 34.6536004,23.7161193 35.2482713,24.6869112" id="Stroke-9-Copy" stroke="#0044CA" stroke-width="1.3" transform="translate(30.933594, 26.875000) scale(-1, 1) translate(-30.933594, -26.875000) "></path>
                    </g>
                </g>
            </g>
        </g>
    </g>
</svg>