<?xml version="1.0" encoding="UTF-8"?>
<svg width="155px" height="32px" viewBox="0 0 155 32" version="1.1" xmlns="http://www.w3.org/2000/svg" xmlns:xlink="http://www.w3.org/1999/xlink">
    <!-- Generator: Sketch 47.1 (45422) - http://www.bohemiancoding.com/sketch -->
    <title>Coriolis_Logo_H_White</title>
    <desc>Created with Sketch.</desc>
    <defs></defs>
    <g id="Symbols" stroke="none" stroke-width="1" fill="none" fill-rule="evenodd">
        <g id="Nav/Menu/Header" transform="translate(-64.000000, -16.000000)">
            <g id="ID/Coriolis/Logo_H_White" transform="translate(64.000000, 16.000000)">
                <path d="M96.0830327,6.35833504 L96.4830501,6.35833504 C96.7596723,6.35833504 96.9840889,6.58314599 96.9840889,6.86041283 L96.9840889,25.1395872 C96.9840889,25.416854 96.7596723,25.641665 96.4830501,25.641665 L96.0830327,25.641665 C95.8064105,25.641665 95.5819939,25.416854 95.5819939,25.1395872 L95.5819939,6.86041283 C95.5819939,6.58314599 95.8064105,6.35833504 96.0830327,6.35833504 L96.0830327,6.35833504 Z M140.367673,21.5950678 C140.619209,21.5030997 140.895831,21.6270863 141.000243,21.8743784 C141.614507,23.3233872 142.835577,24.7049527 145.502812,24.7049527 C147.811387,24.7049527 149.570785,23.2722938 149.570785,20.9036038 C149.570785,15.311261 140.224616,16.8815314 140.224616,10.6556305 C140.224616,8.12139792 142.148767,6 145.419418,6 C148.225642,6 149.734182,7.65678861 150.38438,8.90210505 C150.523369,9.16983446 150.39455,9.4981947 150.112504,9.60378772 L149.848763,9.70188705 C149.615533,9.78908645 149.359251,9.68962463 149.235855,9.47366987 C148.668373,8.48654541 147.502899,7.26711629 145.419418,7.26711629 C142.918292,7.26711629 141.626711,8.81013693 141.626711,10.6828803 C141.626711,15.6689148 151,14.5673411 151,20.8204919 C151,23.6858097 148.883976,25.9993188 145.475014,25.9993188 C142.218601,25.9993188 140.561579,24.1878875 139.801546,22.3560188 C139.692389,22.0923769 139.828666,21.7912664 140.096474,21.6938484 L140.367673,21.5950678 Z M135.282028,6.35833504 L135.681367,6.35833504 C135.958667,6.35833504 136.183084,6.58314599 136.183084,6.86041283 L136.183084,25.1395872 C136.183084,25.416854 135.958667,25.641665 135.681367,25.641665 L135.282028,25.641665 C135.005405,25.641665 134.780989,25.416854 134.780989,25.1395872 L134.780989,6.86041283 C134.780989,6.58314599 135.005405,6.35833504 135.282028,6.35833504 L135.282028,6.35833504 Z M123.020477,6.35833504 L123.420494,6.35833504 C123.697116,6.35833504 123.922211,6.58314599 123.922211,6.86041283 L123.922211,24.3466176 L131.089981,24.3466176 C131.366603,24.3466176 131.591019,24.5714286 131.591019,24.8486954 L131.591019,25.1395872 C131.591019,25.416854 131.366603,25.641665 131.089981,25.641665 L123.020477,25.641665 C122.743854,25.641665 122.519438,25.416854 122.519438,25.1395872 L122.519438,6.86041283 C122.519438,6.58314599 122.743854,6.35833504 123.020477,6.35833504 L123.020477,6.35833504 Z M109.562942,6 C115.00589,6 119.294213,10.3524763 119.294213,16 C119.294213,21.6747735 114.978771,26 109.535822,26 C104.119993,26 99.8316705,21.7572042 99.8316705,16 C99.8316705,10.2979767 104.147791,6 109.562942,6 L109.562942,6 Z M109.562942,24.6770216 C114.209246,24.6770216 117.837878,21.0132843 117.837878,16 C117.837878,11.0412153 114.209246,7.32229716 109.562942,7.32229716 C104.890196,7.32229716 101.289361,11.0412153 101.289361,16 C101.289361,21.0132843 104.890196,24.6770216 109.562942,24.6770216 L109.562942,24.6770216 Z M81.0661077,6.86041283 C81.0661077,6.58314599 81.2905242,6.35833504 81.5671464,6.35833504 L85.4920631,6.35833504 C89.230531,6.35833504 91.237398,8.78220587 91.237398,11.5923428 C91.237398,13.9610328 89.8075052,15.8344574 87.6636831,16.5504462 L92.158116,24.9011513 C92.3384629,25.2356428 92.0964184,25.641665 91.7167409,25.641665 L91.2916376,25.641665 C91.1058668,25.641665 90.9356899,25.5387969 90.8489065,25.3739356 L86.3443036,16.8263506 L82.4682026,16.8263506 L82.4682026,25.1395872 C82.4682026,25.416854 82.2437861,25.641665 81.9671639,25.641665 L81.5671464,25.641665 C81.2905242,25.641665 81.0661077,25.416854 81.0661077,25.1395872 L81.0661077,6.86041283 Z M85.5469807,15.5592343 C88.1308221,15.5592343 89.7525876,14.0441447 89.7525876,11.5923428 C89.7525876,9.30608352 88.2135375,7.65338238 85.4642653,7.65338238 L82.4682026,7.65338238 L82.4682026,15.5592343 L85.5469807,15.5592343 Z M68.4852209,6 C73.9281698,6 78.2164921,10.3524763 78.2164921,16 C78.2164921,21.6747735 73.900372,26 68.4574231,26 C63.0422721,26 58.7539498,21.7572042 58.7539498,16 C58.7539498,10.2979767 63.0700699,6 68.4852209,6 L68.4852209,6 Z M68.4852209,24.6770216 C73.1308469,24.6770216 76.7594795,21.0132843 76.7594795,16 C76.7594795,11.0412153 73.1308469,7.32229716 68.4852209,7.32229716 C63.8117971,7.32229716 60.2109624,11.0412153 60.2109624,16 C60.2109624,21.0132843 63.8117971,24.6770216 68.4852209,24.6770216 L68.4852209,24.6770216 Z M57.9078113,23.2886436 C57.9817128,23.4848423 57.9295071,23.706247 57.7708561,23.8431773 C56.9443795,24.5584849 54.7578436,25.9993188 51.6492337,25.9993188 C46.178487,25.9993188 42,21.7020233 42,16 C42,10.2979767 46.2883223,6 51.5665182,6 C54.3252824,6 56.3206235,7.10429866 57.3477869,7.88568704 C57.5254217,8.02125485 57.5877973,8.25832822 57.5071158,8.46610805 L57.3925346,8.75836229 C57.2732074,9.06492268 56.8989538,9.17392193 56.6325015,8.9811295 C55.6921216,8.30329041 53.9096711,7.32229716 51.5665182,7.32229716 C47.0856452,7.32229716 43.4570126,11.0139655 43.4570126,16 C43.4570126,20.9860345 46.8930944,24.6770216 51.6492337,24.6770216 C54.2940946,24.6770216 56.1219708,23.5277607 57.0359089,22.8070032 C57.3003272,22.5992234 57.6901747,22.7129913 57.8095019,23.0284079 L57.9078113,23.2886436 Z M152.747917,8.79791667 C152.518749,8.66319377 152.336806,8.48125115 152.202083,8.25208333 C152.06736,8.02291552 152,7.77222358 152,7.5 C152,7.22777642 152.06736,6.97708448 152.202083,6.74791667 C152.336806,6.51874885 152.518749,6.33680623 152.747917,6.20208333 C152.977084,6.06736044 153.227776,6 153.5,6 C153.772224,6 154.022916,6.06736044 154.252083,6.20208333 C154.481251,6.33680623 154.663194,6.51874885 154.797917,6.74791667 C154.93264,6.97708448 155,7.22777642 155,7.5 C155,7.77222358 154.93264,8.02291552 154.797917,8.25208333 C154.663194,8.48125115 154.481251,8.66319377 154.252083,8.79791667 C154.022916,8.93263956 153.772224,9 153.5,9 C153.227776,9 152.977084,8.93263956 152.747917,8.79791667 Z M154.1125,8.57291667 C154.298612,8.4604161 154.446527,8.30902873 154.55625,8.11875 C154.665973,7.92847127 154.720833,7.72222333 154.720833,7.5 C154.720833,7.27777667 154.665973,7.07152873 154.55625,6.88125 C154.446527,6.69097127 154.298612,6.5395839 154.1125,6.42708333 C153.926388,6.31458277 153.722223,6.25833333 153.5,6.25833333 C153.277777,6.25833333 153.072918,6.31458277 152.885417,6.42708333 C152.697916,6.5395839 152.549306,6.69097127 152.439583,6.88125 C152.329861,7.07152873 152.275,7.27777667 152.275,7.5 C152.275,7.72222333 152.329861,7.92847127 152.439583,8.11875 C152.549306,8.30902873 152.697916,8.4604161 152.885417,8.57291667 C153.072918,8.68541723 153.277777,8.74166667 153.5,8.74166667 C153.722223,8.74166667 153.926388,8.68541723 154.1125,8.57291667 Z M152.95,8.23333333 C152.933333,8.21666658 152.925,8.19444458 152.925,8.16666667 L152.925,6.825 C152.925,6.79722208 152.933333,6.77500008 152.95,6.75833333 C152.966667,6.74166658 152.988889,6.73333333 153.016667,6.73333333 L153.5625,6.73333333 C153.737501,6.73333333 153.878472,6.77222183 153.985417,6.85 C154.092362,6.92777817 154.145833,7.05138804 154.145833,7.22083333 C154.145833,7.32916721 154.119445,7.42013852 154.066667,7.49375 C154.013889,7.56736148 153.943056,7.62222204 153.854167,7.65833333 L154.125,8.10833333 C154.136111,8.12500008 154.141667,8.14444433 154.141667,8.16666667 C154.141667,8.19166679 154.134028,8.21319435 154.11875,8.23125 C154.103472,8.24930565 154.080556,8.25833333 154.05,8.25833333 L153.941667,8.25833333 C153.891666,8.25833333 153.851389,8.23194471 153.820833,8.17916667 L153.55,7.7125 L153.225,7.7125 L153.225,8.16666667 C153.225,8.19444458 153.216667,8.21666658 153.2,8.23333333 C153.183333,8.25000008 153.161111,8.25833333 153.133333,8.25833333 L153.016667,8.25833333 C152.988889,8.25833333 152.966667,8.25000008 152.95,8.23333333 Z M153.554167,7.44166667 C153.743056,7.44166667 153.8375,7.36805629 153.8375,7.22083333 C153.8375,7.15694413 153.815972,7.10416688 153.772917,7.0625 C153.729861,7.02083313 153.656945,7 153.554167,7 L153.225,7 L153.225,7.44166667 L153.554167,7.44166667 Z" id="Fill-1" fill="#FFFFFF" fill-rule="evenodd"></path>
                <path d="M24.8940336,30.9259568 C24.8339091,30.9259568 24.7745004,30.9252551 24.7150917,30.9245533 C20.4126121,30.843854 15.1123523,27.897277 10.8835968,23.2349627 C4.36510036,16.047813 2.24213338,6.95265115 6.15094076,2.96119365 C7.40353423,1.68263606 9.17362774,1.0272174 11.2851424,1.06651445 C15.5876221,1.14721375 20.8871661,4.09379076 25.1159216,8.75610504 C31.6351338,15.9432548 33.7581008,25.0377149 29.8485776,29.0298741 C28.6324883,30.2726433 26.9218035,30.9259568 24.8940336,30.9259568" id="Fill-3" stroke="#0044CA" stroke-width="0.517391304"></path>
                <path d="M25.4865659,28.4014187 C21.5512751,28.4014187 16.6103307,26.3390253 12.2978304,22.8436931 C5.19025718,17.0845701 1.96286064,9.22866877 5.10293352,5.3312435 C6.06850414,4.13338521 7.56946899,3.39796899 9.44406459,3.20218547 C13.5275193,2.77693525 18.9895426,4.88634475 23.7028728,8.70587766 C30.8097303,14.4650007 34.0371268,22.3216037 30.8970539,26.219029 C29.9321991,27.4161856 28.4312342,28.1523035 26.5559229,28.3473853 C26.2094913,28.3831737 25.8523232,28.4014187 25.4865659,28.4014187" id="Fill-6" stroke="#2F81B7" stroke-width="0.517391304"></path>
                <path d="M25.652023,26.1075414 C22.2005912,26.1075414 17.8880908,24.9096831 13.7180283,22.5658948 C8.44496765,19.6024762 4.57481172,15.4924258 3.61926185,11.8406071 C3.21914771,10.3129343 3.36874315,8.92350287 4.05373284,7.82318547 C6.41576623,4.02540629 14.5934121,4.45135824 22.281473,8.773332 C27.5545336,11.7367506 31.4246895,15.846801 32.3809551,19.4986197 C32.7810693,21.0262925 32.6307581,22.4157239 31.9457684,23.5160413 C30.8649592,25.254234 28.5651976,26.1075414 25.652023,26.1075414" id="Fill-8" stroke="#159588" stroke-width="0.517391304"></path>
                <path d="M24.9462312,24.3354723 C22.0273305,24.3354723 18.608824,23.7509287 15.1445084,22.5432462 C9.32245393,20.5145359 4.62844938,17.1370949 3.18689325,13.9407009 C2.63646789,12.7189837 2.57491187,11.5898952 3.00437248,10.5843118 C4.58264025,6.88968736 12.5906492,6.22654964 20.8556188,9.10646201 C26.6776732,11.1358739 31.3716778,14.5126133 32.8132339,17.709709 C33.3636593,18.9307245 33.4252153,20.0598129 32.9950389,21.0660981 C32.0788563,23.2119977 28.992466,24.3354723 24.9462312,24.3354723" id="Fill-10" stroke="#8CC152" stroke-width="0.517391304"></path>
                <path d="M22.7790135,22.8129711 C20.8392831,22.8129711 18.7449468,22.6445551 16.5733076,22.2908817 C10.0691265,21.2319665 4.6020929,18.7225692 2.64518402,15.8987955 C1.99240388,14.9577715 1.76121091,14.0272735 1.9587628,13.1332656 C2.76400145,9.47793821 10.4377469,7.76149921 19.4270734,9.22531432 C25.9312544,10.2849312 31.3982881,12.7936268 33.355197,15.6174005 C34.0072613,16.5591263 34.2384543,17.4896243 34.0416182,18.3829304 C33.4310683,21.1554776 28.8687651,22.8129711 22.7790135,22.8129711" id="Fill-12" stroke="#CDDA49" stroke-width="0.517391304"></path>
                <path d="M17.9996438,22.0777932 C8.46713325,22.0777932 1,19.2933165 1,15.738337 C1,12.1826557 8.46713325,9.39817902 17.9996438,9.39817902 C27.5328668,9.39817902 35,12.1826557 35,15.738337 C35,19.2933165 27.5328668,22.0777932 17.9996438,22.0777932" id="Fill-25" stroke="#FFDC00" stroke-width="0.517391304"></path>
                <path d="M13.2215788,22.8129711 C7.13117316,22.8129711 2.5696318,21.1554776 1.95837238,18.3829304 C1.76153825,17.4896243 1.99272888,16.5591263 2.64550241,15.6174005 C4.60167572,12.7936268 10.0686541,10.2849312 16.573485,9.22531432 C25.5634363,7.76149921 33.2363884,9.47793821 34.0416189,13.1332656 C34.238453,14.0265717 34.0072624,14.9570697 33.3552046,15.8987955 C31.3983155,18.7225692 25.9313372,21.2319665 19.427222,22.2908817 C17.2556048,22.6445551 15.1612897,22.8129711 13.2215788,22.8129711" id="Fill-23" stroke="#FDC02F" stroke-width="0.517391304"></path>
                <path d="M11.0538324,24.3354723 C7.00759762,24.3354723 3.92120732,23.2119977 3.00430891,21.0653964 C2.57484829,20.0598129 2.63640431,18.9307245 3.18682967,17.709709 C4.62838581,14.513315 9.32167458,11.1358739 15.1444448,9.10646201 C23.4086986,6.22654964 31.4167076,6.88968736 32.9956911,10.5843118 C33.4251517,11.5898952 33.3635957,12.7189837 32.8131703,13.9407009 C31.3716142,17.1370949 26.6776096,20.5145359 20.8555552,22.5432462 C17.3919553,23.750227 13.9727331,24.3354723 11.0538324,24.3354723" id="Fill-21" stroke="#FD9727" stroke-width="0.517391304"></path>
                <path d="M10.3473697,26.1073023 C7.43419517,26.1073023 5.13514933,25.2539949 4.05362435,23.5158022 C3.36935043,22.4154848 3.21903922,21.0260534 3.61915336,19.4983805 C4.575419,15.8465618 8.44485916,11.7372132 13.7179198,8.77309284 C21.4059806,4.45182082 29.5836265,4.02516713 31.9463757,7.82294631 C32.6306496,8.92326371 32.7809608,10.3126951 32.3808466,11.8410697 C31.424581,15.4921866 27.5551408,19.602237 22.2820802,22.5656556 C18.1120176,24.909444 13.7988015,26.1073023 10.3473697,26.1073023" id="Fill-19" stroke="#FC5830" stroke-width="0.517391304"></path>
                <path d="M10.5134341,28.4009696 C10.1476768,28.4009696 9.7905087,28.3834263 9.44407713,28.3469362 C7.56876577,28.1518544 6.06780091,27.4157365 5.10294606,26.2178782 L5.10294606,26.2185799 C1.96287318,22.3211546 5.19026972,14.4645516 12.2971272,8.70542857 C17.0104574,4.88589566 22.4717649,2.77859136 26.5559354,3.20173638 C28.430531,3.3975199 29.9314959,4.13293612 30.8970665,5.33079441 C34.0371394,9.22821968 30.8097428,17.084121 23.7021696,22.843244 C19.3896693,26.3378745 14.4487249,28.4009696 10.5134341,28.4009696" id="Fill-17" stroke="#FF2D55" stroke-width="0.517391304"></path>
                <path d="M11.1059804,30.9259009 C9.07821053,30.9259009 7.36752574,30.2725875 6.15143642,29.0298183 C2.24191327,25.0383608 4.36488026,15.9431989 10.8833767,8.75604917 C15.112848,4.09373489 20.412392,1.14715788 24.7148716,1.06645858 C26.8199444,1.02786326 28.5964798,1.68258018 29.8490733,2.96113777 C33.7578806,6.953297 31.6349137,16.0477571 25.1164173,23.2349069 C20.886946,27.8972211 15.5874019,30.8437982 11.2849223,30.9244975 C11.2255136,30.9251992 11.1653891,30.9259009 11.1059804,30.9259009" id="Fill-14" stroke="#F91661" stroke-width="0.517391304"></path>
            </g>
        </g>
    </g>
</svg>