<?xml version="1.0" encoding="UTF-8"?>
<svg width="48px" height="48px" viewBox="0 0 48 48" version="1.1" xmlns="http://www.w3.org/2000/svg" xmlns:xlink="http://www.w3.org/1999/xlink">
    <!-- Generator: Sketch 47 (45396) - http://www.bohemiancoding.com/sketch -->
    <title>Icon/Replica/48</title>
    <desc>Created with Sketch.</desc>
    <defs></defs>
    <g id="Symbols" stroke="none" stroke-width="1" fill="none" fill-rule="evenodd">
        <g id="Icon/Replica/48" stroke="#F91661" stroke-width="1.3">
            <path d="M39.8779966,20.2247603 C42.4624503,21.4192261 44,22.9125401 44,24.5308944 C44,26.1929422 42.3776002,27.723203 39.6646161,28.9332194 C40.8743375,33.4465944 40.4427555,37.4820672 38.0903059,39.8841933 C36.6936437,41.3112047 34.6984121,42.0349155 32.3171466,41.9974968 C29.8371471,41.9511444 27.0670328,41.0849954 24.2956207,39.5604524 C21.5243561,41.0848488 18.7542914,41.950978 16.274332,41.9977473 C13.8982715,42.0462214 11.8987024,41.3114551 10.5011728,39.8844438 C8.18828399,37.522714 7.7322001,33.582111 8.86722517,29.1607615 C5.83575116,27.9178449 4,26.2989355 4,24.5308944 C4,22.8050684 5.74837341,21.2214414 8.65023971,19.9907986 C7.46550334,15.5078143 7.90529999,11.5037851 10.2446803,9.11500436 C11.6014378,7.72881333 13.5238,7 15.8131114,7 C15.8807758,7 15.9493076,7.00085042 16.0178395,7.00170085 C18.5744602,7.04948535 21.4393991,7.96850526 24.2961217,9.58193101 C27.1528097,7.96866061 30.0175899,7.04973334 32.5736391,7.00195131 C32.642171,7.00110089 32.7107029,7.00025047 32.7783673,7.00025047 C35.0676786,7.00025047 36.9900409,7.72906379 38.3467984,9.11525483 C40.7267574,11.5454712 41.1406611,15.6474582 39.8779966,20.2247603 Z M14.4158272,18.3098602 C12.2087596,18.7387338 10.253458,19.3108951 8.65023971,19.9907986 C9.06026963,21.5423317 9.66488761,23.1512344 10.4526913,24.7704013 C11.4523548,22.6070374 12.78251,20.4158723 14.4158272,18.3098602 Z M34.5374249,30.5534245 C36.4980308,30.1209696 38.2331353,29.5716733 39.6646161,28.9332194 C39.301421,27.578167 38.7902816,26.1800373 38.1387636,24.7700993 C37.1947973,26.7101404 35.9878161,28.6649246 34.5374249,30.5534245 Z M39.8779966,20.2247603 C38.34735,19.5173362 36.4494895,18.9147366 34.2863414,18.4530683 C33.6793625,17.6623451 33.0297138,16.8832226 32.3388339,16.1216473 C29.8616223,13.3904036 27.0827811,11.1557863 24.2961217,9.58193101 C21.5092039,11.1557997 18.7299878,13.3905091 16.2526447,16.1218978 C15.6035838,16.837375 14.9909136,17.5683393 14.4158272,18.3098602 C17.2631763,17.7565683 20.5295574,17.4417604 23.9995683,17.4417604 C27.7586703,17.4417604 31.2789004,17.8112075 34.2863414,18.4530683 C35.8691365,20.5150066 37.1617809,22.6558293 38.1387636,24.7700993 C38.8870254,23.2322702 39.4700246,21.7037047 39.8779966,20.2247603 Z M24.2956207,39.5604524 C27.1681493,37.9803534 30.041967,35.6930011 32.5953264,32.8778008 C33.2841545,32.1184872 33.931996,31.3417306 34.5374249,30.5534245 C31.4755869,31.2287803 27.8637866,31.6191781 23.9995683,31.6191781 C20.4286435,31.6191781 17.0733643,31.2857935 14.1684781,30.7022318 C12.6670471,28.7678192 11.4213854,26.7613508 10.4526913,24.7704013 C9.76469117,26.259297 9.23323273,27.7350244 8.86722517,29.1607615 C10.3673555,29.7758209 12.1602923,30.2988079 14.1684781,30.7022318 C14.7406593,31.4394183 15.3499859,32.1661401 15.9952847,32.8775504 C18.5490457,35.6927067 21.4230304,37.9802518 24.2956207,39.5604524 Z" id="Combined-Shape"></path>
        </g>
    </g>
</svg>