<?xml version="1.0" encoding="UTF-8"?>
<svg width="48px" height="44px" viewBox="0 0 48 44" version="1.1" xmlns="http://www.w3.org/2000/svg" xmlns:xlink="http://www.w3.org/1999/xlink">
    <!-- Generator: Sketch 47.1 (45422) - http://www.bohemiancoding.com/sketch -->
    <title>Icon-Replica-White</title>
    <desc>Created with Sketch.</desc>
    <defs></defs>
    <g id="Symbols" stroke="none" stroke-width="1" fill="none" fill-rule="evenodd">
        <g id="Elements/Endpoint" transform="translate(-48.000000, -10.000000)">
            <g id="Icon/ListItem/48" transform="translate(48.000000, 8.000000)">
                <path d="M8.56957458,6.7868 L1.17775396,19.2118 C0.399760797,20.5218587 0.00617395647,22.238711 0,23.9601474 C0.00616856622,25.7598885 0.397751035,27.4757452 1.17775396,28.7878 L8.56957458,41.2128 C10.1379331,43.8508 13.9249451,45.9998 17.0183762,45.9998 L30.9815989,45.9998 C34.0790566,45.9998 37.8580154,43.8568 39.4314072,41.2128 L46.8222211,28.7878 C47.5923073,27.4918 47.9859069,25.7978 48,24.0958 L48,23.9038 C47.9859069,22.2028 47.593314,20.5088 46.8222211,19.2118 L39.4314072,6.7868 C37.8707893,4.16350357 34.1181723,2.0237712 31.0334058,2 L16.9664762,2 C13.8798077,2.02374356 10.1331854,4.15854855 8.56957458,6.7868 Z" id="Clip-2" fill="#E7E7E7" fill-rule="evenodd"></path>
                <path d="M8.56957458,6.7868 L1.17775396,19.2118 C0.399760797,20.5218587 0.00617395647,22.238711 0,23.9601474 C0.00616856622,25.7598885 0.397751035,27.4757452 1.17775396,28.7878 L8.56957458,41.2128 C10.1379331,43.8508 13.9249451,45.9998 17.0183762,45.9998 L30.9815989,45.9998 C34.0790566,45.9998 37.8580154,43.8568 39.4314072,41.2128 L46.8222211,28.7878 C47.5923073,27.4918 47.9859069,25.7978 48,24.0958 L48,23.9038 C47.9859069,22.2028 47.593314,20.5088 46.8222211,19.2118 L39.4314072,6.7868 C37.8707893,4.16350357 34.1181723,2.0237712 31.0334058,2 L16.9664762,2 C13.8798077,2.02374356 10.1331854,4.15854855 8.56957458,6.7868 Z" id="Clip-2-Copy" fill="#C8CCD7" fill-rule="evenodd"></path>
                <g id="Icon/Endpoint/32" stroke="#979797" stroke-width="1" transform="translate(8.000000, 8.000000)">
                    <path d="M12.9001072,5 C8.89566575,5 5.68913667,8.22254196 5.51864257,12.252296 C2.61838289,13.0569855 0.500536152,15.7188935 0.500536152,18.8745882 C0.500536152,22.6867734 3.57252989,25.811567 7.32030025,25.811567 L25.9196569,25.811567 C28.9854508,25.811567 31.4994638,23.2543444 31.4994638,20.1358571 C31.4994638,17.6763828 29.8875196,15.5902441 27.7213145,14.8536631 C27.5898791,11.1562534 24.6251416,8.15317218 20.9598284,8.15317218 C20.3156707,8.15317218 19.7161515,8.31461459 19.1191121,8.4886697 C17.7867782,6.42649509 15.5145568,5 12.9001072,5 L12.9001072,5 Z" id="Path" stroke="#0044CA" stroke-width="1.03225806" transform="translate(16.000000, 15.405784) scale(-1, 1) translate(-16.000000, -15.405784) "></path>
                    <path d="M13.5,18 L19.421875,18" id="Stroke-7" stroke="#0044CA" stroke-linecap="round"></path>
                    <path d="M14.90625,19.7268549 C14.4307438,20.4949031 13.6235586,21 12.708042,21 L10.6481296,21 C9.18565397,21 8,19.7108122 8,18.1200702 L8,17.8801805 C8,16.2894385 9.18565397,15 10.6481296,15 L12.708042,15 C13.6228672,15 14.4291303,15.5040943 14.904867,16.2711397" id="Stroke-9" stroke="#0044CA" stroke-linecap="round"></path>
                    <path d="M25,19.7268549 C24.5244938,20.4949031 23.7173086,21 22.801792,21 L20.7418796,21 C19.279404,21 18.09375,19.7108122 18.09375,18.1200702 L18.09375,17.8801805 C18.09375,16.2894385 19.279404,15 20.7418796,15 L22.801792,15 C23.7166172,15 24.5228803,15.5040943 24.998617,16.2711397" id="Stroke-9-Copy" stroke="#0044CA" stroke-linecap="round" transform="translate(21.546875, 18.000000) scale(-1, 1) translate(-21.546875, -18.000000) "></path>
                </g>
            </g>
        </g>
    </g>
</svg>